# xmcd CD database file
#
# Track frame offsets:
#	150
#	12045
#	26040
#	36375
#	51326
#	60997
#	75355
#	86218
#	100618
#	112974
#
# Disc length: 1722 seconds
#
# Revision: 0
# Processed by: cddbd v1.5.2PL0 Copyright (c) Steve Scherf et al.
# Submitted via: CDex 1.51
#
DISCID=6f06b80a
DTITLE=Herby Wallace and Sonny Thomas - Tribute to Leon Rhodes and Buddy Charleton
DYEAR=1900
DGENRE=Country
TTITLE0=Honey Fingers
TTITLE1=Red Top
TTITLE2=ET Blues
TTITLE3=Remington Ride
TTITLE4=Sunny Gem
TTITLE5=Steel Guitar Rag
TTITLE6=Rhodes Bud Boogie
TTITLE7=Panhandle Rag
TTITLE8=Little Rock Getaway
TTITLE9=What Friend We Have In Jesus
EXTD=
EXTT0=
EXTT1=
EXTT2=
EXTT3=
EXTT4=
EXTT5=
EXTT6=
EXTT7=
EXTT8=
EXTT9=
PLAYORDER=
